<?xml version="1.0" encoding="UTF-8" standalone="no"?>
<!-- Created with Inkscape (http://www.inkscape.org/) -->

<svg
   width="680.26459mm"
   height="533.38654mm"
   viewBox="0 0 680.26459 533.38653"
   version="1.1"
   id="svg5"
   inkscape:version="1.1.2 (0a00cf5339, 2022-02-04, custom)"
   sodipodi:docname="Boitier Epaisseur5mm.svg"
   xmlns:inkscape="http://www.inkscape.org/namespaces/inkscape"
   xmlns:sodipodi="http://sodipodi.sourceforge.net/DTD/sodipodi-0.dtd"
   xmlns:xlink="http://www.w3.org/1999/xlink"
   xmlns="http://www.w3.org/2000/svg"
   xmlns:svg="http://www.w3.org/2000/svg">
  <sodipodi:namedview
     id="namedview7"
     pagecolor="#ffffff"
     bordercolor="#666666"
     borderopacity="1.0"
     inkscape:pageshadow="2"
     inkscape:pageopacity="0.0"
     inkscape:pagecheckerboard="0"
     inkscape:document-units="mm"
     showgrid="false"
     inkscape:zoom="0.80087685"
     inkscape:cx="1539.5625"
     inkscape:cy="990.78904"
     inkscape:window-width="3840"
     inkscape:window-height="2081"
     inkscape:window-x="-9"
     inkscape:window-y="-9"
     inkscape:window-maximized="1"
     inkscape:current-layer="layer1"
     showguides="true"
     inkscape:guide-bbox="true">
    <inkscape:grid
       type="xygrid"
       id="grid2870"
       originx="3.0428312e-08"
       originy="80.00029" />
  </sodipodi:namedview>
  <defs
     id="defs2" />
  <g
     inkscape:label="Calque 1"
     inkscape:groupmode="layer"
     id="layer1"
     transform="translate(23.25799,86.36006)">
    <path
       id="rect868"
       style="opacity:1;vector-effect:none;fill:none;fill-opacity:1;fill-rule:evenodd;stroke:#ff0000;stroke-width:1.00001;stroke-linecap:butt;stroke-linejoin:miter;stroke-miterlimit:4;stroke-dasharray:none;stroke-dashoffset:0;stroke-opacity:1"
       d="M 134.22852,-264.06641 C 60.142975,-264.06641 0.5,-204.42343 0.5,-130.33789 v 526.24414 c 0,74.08554 59.642975,133.72852 133.72852,133.72852 H 1151.8105 c 74.0856,0 133.7286,-59.64298 133.7286,-133.72852 v -526.24414 c 0,-74.08554 -59.643,-133.72852 -133.7286,-133.72852 z M 76.089844,-148.33008 H 1209.9492 v 37.79492 H 76.089844 Z"
       transform="matrix(0.26458333,0,0,0.26458333,-23.257989,-16.359771)" />
    <g
       id="g4823">
      <circle
         style="fill:none;stroke:#ff0000;stroke-width:0.264583"
         id="path1074"
         cx="30.374304"
         cy="7.5984421"
         r="2.55" />
      <circle
         style="fill:none;stroke:#ff0000;stroke-width:0.264583"
         id="path1074-4"
         cx="146.8743"
         cy="7.5984421"
         r="2.55" />
    </g>
    <circle
       style="fill:none;stroke:#ff0000;stroke-width:0.264583"
       id="path1074-1"
       cx="263.3743"
       cy="7.5984421"
       r="2.55" />
    <circle
       style="fill:none;stroke:#ff0000;stroke-width:0.264583"
       id="path1235"
       cx="30.374304"
       cy="73.73526"
       r="13.5" />
    <circle
       style="fill:none;stroke:#ff0000;stroke-width:0.264583"
       id="path1235-3"
       cx="146.8743"
       cy="73.73526"
       r="13.5" />
    <circle
       style="fill:none;stroke:#ff0000;stroke-width:0.264583"
       id="path1235-6"
       cx="263.3743"
       cy="73.73526"
       r="13.5" />
    <g
       id="g_tag_id_4"
       class="g_tag_piece_box"
       transform="translate(-17.215444,166.03734)"
       style="fill:none;stroke:#ff0000;stroke-width:0.264583;stroke-miterlimit:4;stroke-dasharray:none" />
    <use
       x="0"
       y="0"
       xlink:href="#rect868"
       id="use3966"
       transform="translate(360)"
       width="100%"
       height="100%" />
    <g
       id="g3964"
       transform="translate(19.999954)">
      <rect
         style="vector-effect:none;fill:none;fill-opacity:1;fill-rule:evenodd;stroke:#ff0000;stroke-width:0.264583;stroke-linecap:butt;stroke-linejoin:miter;stroke-miterlimit:4;stroke-dasharray:none;stroke-dashoffset:0;stroke-opacity:1"
         id="rect4167-9"
         width="20.004725"
         height="4.9999743"
         x="564.37195"
         y="-45.605438"
         ry="0" />
      <rect
         style="vector-effect:none;fill:none;fill-opacity:1;fill-rule:evenodd;stroke:#ff0000;stroke-width:0.264583;stroke-linecap:butt;stroke-linejoin:miter;stroke-miterlimit:4;stroke-dasharray:none;stroke-dashoffset:0;stroke-opacity:1"
         id="rect4167-9-5"
         width="20.004725"
         height="4.9999743"
         x="389.37195"
         y="-45.605412"
         ry="0" />
      <rect
         style="vector-effect:none;fill:none;fill-opacity:1;fill-rule:evenodd;stroke:#ff0000;stroke-width:0.264583;stroke-linecap:butt;stroke-linejoin:miter;stroke-miterlimit:4;stroke-dasharray:none;stroke-dashoffset:0;stroke-opacity:1"
         id="rect7465"
         width="20.004725"
         height="4.9999743"
         x="564.37195"
         y="103.77252"
         ry="0" />
      <rect
         style="vector-effect:none;fill:none;fill-opacity:1;fill-rule:evenodd;stroke:#ff0000;stroke-width:0.264583;stroke-linecap:butt;stroke-linejoin:miter;stroke-miterlimit:4;stroke-dasharray:none;stroke-dashoffset:0;stroke-opacity:1"
         id="rect7467"
         width="20.004725"
         height="4.9999743"
         x="389.37195"
         y="103.77254"
         ry="0" />
    </g>
    <g
       id="g_tag_id_3"
       class="g_tag_piece_box"
       transform="translate(36.874115,130.03734)"
       style="fill:none;stroke:#ff0000;stroke-width:0.264583;stroke-miterlimit:4;stroke-dasharray:none">
      <path
         d="m -40,5 v 0 h 5 V 5 H 4.857143 V 0 h 20 V 5 5 H 42.714286 V 0 h 20 V 5 5 H 80.57143 V 0 h 20 v 5 0 h 17.85714 V 0 h 20 v 5 0 h 17.85714 V 0 h 20 v 5 0 h 17.85715 V 0 h 20 V 5 5 H 255 h 5"
         fill="transparent"
         id="path8"
         style="fill:none;stroke:#ff0000;stroke-width:0.264583;stroke-miterlimit:4;stroke-dasharray:none"
         sodipodi:nodetypes="cccccccccccccccccccccccccccccccccccc" />
      <path
         d="m 260,5 v 0 5 0 7.5 h -5 v 30 h 5 v 0 7.5 15"
         fill="transparent"
         id="path10"
         style="fill:none;stroke:#ff0000;stroke-width:0.264583;stroke-miterlimit:4;stroke-dasharray:none"
         sodipodi:nodetypes="ccccccccccc" />
      <path
         d="m 260,70 h -29.99527 l -0.005,2.999983 h -20 L 210.05882,70 H 55.039769 l -0.03977,2.999998 h -20 L 35.064658,70 H -40"
         fill="transparent"
         id="path12"
         style="fill:none;stroke:#ff0000;stroke-width:0.264583;stroke-miterlimit:4;stroke-dasharray:none"
         sodipodi:nodetypes="cccccccccc" />
      <path
         d="m -40,70 v 0 -15 0 -7.5 h 5 v -30 h -5 v 0 V 10 5"
         fill="transparent"
         id="path14"
         style="fill:none;stroke:#ff0000;stroke-width:0.264583;stroke-miterlimit:4;stroke-dasharray:none"
         sodipodi:nodetypes="ccccccccccc" />
    </g>
    <g
       id="g_tag_id_5"
       class="g_tag_piece_box"
       transform="translate(36.874115,140.03734)"
       style="fill:none;stroke:#ff0000;stroke-width:0.264583;stroke-miterlimit:4;stroke-dasharray:none">
      <path
         d="m 260,-5 v 0 0 h 13.33333 v -5 h 20 v 5 0 h 77.33334 v -5 h 20 v 5 0 H 404 v 0 5 0 7.5 h 5 v 30 h -5 v 0 7.5 15 H 260"
         fill="transparent"
         id="path17"
         style="fill:none;stroke:#ff0000;stroke-width:0.264583;stroke-miterlimit:4;stroke-dasharray:none"
         sodipodi:nodetypes="ccccccccccccccccccccccccc" />
    </g>
    <g
       id="g_tag_id_1"
       class="g_tag_piece_box"
       transform="translate(36.874115,176.03734)"
       style="fill:none;stroke:#ff0000;stroke-width:0.264583;stroke-miterlimit:4;stroke-dasharray:none">
      <path
         d="m 260,30 v 0 15 0 7.5 h -5 v 30 h 5 v 0 7.5 5"
         fill="transparent"
         id="path24"
         style="fill:none;stroke:#ff0000;stroke-width:0.264583;stroke-miterlimit:4;stroke-dasharray:none"
         sodipodi:nodetypes="ccccccccccc" />
      <path
         d="m 260,95 v 0 h -5 v 0 h -40.85714 v 5 h -20 v -5 0 h -17.85715 v 5 h -20 v -5 0 h -17.85714 v 5 h -20 v -5 0 h -17.85714 v 5 h -20 v -5 0 H 62.714286 v 5 h -20 v -5 0 H 24.857143 v 5 h -20 v -5 0 H -35 -40"
         fill="transparent"
         id="path26"
         style="fill:none;stroke:#ff0000;stroke-width:0.264583;stroke-miterlimit:4;stroke-dasharray:none"
         sodipodi:nodetypes="cccccccccccccccccccccccccccccccccccc" />
      <path
         d="m -40,95 v 0 -5 0 -7.5 h 5 v -30 h -5 v 0 V 45 30"
         fill="transparent"
         id="path28"
         style="fill:none;stroke:#ff0000;stroke-width:0.264583;stroke-miterlimit:4;stroke-dasharray:none"
         sodipodi:nodetypes="ccccccccccc" />
    </g>
    <path
       id="path40"
       style="fill:none;stroke:#ff0000;stroke-width:0.264583;stroke-miterlimit:4;stroke-dasharray:none"
       d="m 296.87411,271.03734 v 5.00021 13.33357 h -5.0002 v 19.9998 h 5.0002 v 77.33354 h -5.0002 v 19.99983 h 5.0002 v 13.33354 4.9997 h -5.0002 -40.8568 v -4.9997 h -20.00033 v 4.64106 l -17.8573,0.35915 v -5.00021 h -19.99982 v 4.9997 h -17.85731 v -4.9997 h -19.99981 v 4.9997 h -17.85731 v -4.9997 h -19.9998 v 4.9997 H 99.588117 v -4.9997 H 79.588306 l 2.06e-4,4.7492 -17.857308,0.23614 -2.07e-4,-4.98534 H 41.731186 v 4.9997 H 1.873877 -3.125817 v -4.9997 -13.33354 h 4.999694 v -19.99983 h -4.999694 v -77.33354 h 4.999694 v -19.9998 h -4.999694 v -13.33357 -5.00021"
       sodipodi:nodetypes="cccccccccccccccccccccccccccccccccccccccccccccccccc" />
    <path
       id="rect1955"
       style="vector-effect:none;fill:none;fill-opacity:1;fill-rule:evenodd;stroke:#ff0000;stroke-width:0.264583;stroke-linecap:butt;stroke-linejoin:miter;stroke-miterlimit:4;stroke-dasharray:none;stroke-dashoffset:0;stroke-opacity:1"
       d="m 23.682553,293.71979 c -1.555698,0 -2.808097,1.25241 -2.808097,2.8081 v 5.62393 c -2.442354,1.15838 -3.999476,3.61948 -4.000273,6.32262 -4.4e-5,3.86606 3.13403,7.00013 7.00009,7.00008 3.866059,5e-5 7.000133,-3.13402 7.000089,-7.00008 -1.12e-4,-2.70357 -1.557103,-5.16538 -3.999755,-6.32415 v -5.6224 c 0,-1.55569 -1.252399,-2.8081 -2.808098,-2.8081 z"
       sodipodi:nodetypes="sscccccsss" />
    <path
       id="rect1955-0"
       style="vector-effect:none;fill:none;fill-opacity:1;fill-rule:evenodd;stroke:#ff0000;stroke-width:0.264583;stroke-linecap:butt;stroke-linejoin:miter;stroke-miterlimit:4;stroke-dasharray:none;stroke-dashoffset:0;stroke-opacity:1"
       d="m 269.6823,292.85514 c -1.5557,0 -2.8081,1.25241 -2.8081,2.8081 v 5.62393 c -2.44235,1.15838 -3.99947,3.61949 -4.00027,6.32262 -4e-5,3.86606 3.13403,7.00013 7.00009,7.00008 3.86606,5e-5 7.00013,-3.13402 7.00009,-7.00008 -1.1e-4,-2.70357 -1.55711,-5.16538 -3.99976,-6.32415 v -5.6224 c 0,-1.55569 -1.25239,-2.8081 -2.80809,-2.8081 z"
       sodipodi:nodetypes="sscccscsss" />
    <rect
       style="vector-effect:none;fill:none;fill-opacity:1;fill-rule:evenodd;stroke:#ff0000;stroke-width:0.264583;stroke-linecap:butt;stroke-linejoin:miter;stroke-miterlimit:4;stroke-dasharray:none;stroke-dashoffset:0;stroke-opacity:1"
       id="rect3919"
       width="100"
       height="30"
       x="38.624302"
       y="231.03734"
       ry="5.7954721" />
    <path
       style="fill:none;stroke:#ff0000;stroke-width:0.264583px;stroke-linecap:butt;stroke-linejoin:miter;stroke-opacity:1"
       d="m -3.125885,206.03734 h 75.04686 l -0.04686,-3 h 20 l -0.0072,3 H 246.97423 l -0.10011,-3 h 20 l 0.046,3 h 173.95398 2e-5 v 15 0 7.5 h 5 v 30 h -5 v 0 7.5 5 0 0 h -13.33333 v 5 h -20 v -5 0 h -77.33334 v 5 h -20 v -5 0 h -13.33333"
       id="path4662"
       sodipodi:nodetypes="ccccccccccccccccccccccccccccccccc" />
    <g
       id="g3003"
       transform="translate(-280.1343,-7.09788)"
       style="stroke:#000000">
      <path
         id="rect1399"
         style="opacity:1;vector-effect:none;fill:none;fill-opacity:1;fill-rule:evenodd;stroke:#000000;stroke-width:0.999999;stroke-linecap:butt;stroke-linejoin:miter;stroke-miterlimit:4;stroke-dasharray:none;stroke-dashoffset:0;stroke-opacity:1"
         d="m 1332.3449,1150.2996 8e-4,11.3391 -11.5721,10e-5 v 241.8886 l 11.5721,-10e-5 5e-4,11.3392 h 298.584 l -5e-4,-11.3392 11.3378,-5e-4 v -241.8886 l -11.3378,5e-4 -8e-4,-11.3391 z"
         transform="matrix(0.26458333,0,0,0.26458333,-23.257989,-16.359771)"
         sodipodi:nodetypes="ccccccccccccc" />
      <rect
         style="opacity:1;vector-effect:none;fill:none;fill-opacity:1;fill-rule:evenodd;stroke:#000000;stroke-width:0.264583;stroke-linecap:butt;stroke-linejoin:miter;stroke-miterlimit:4;stroke-dasharray:none;stroke-dashoffset:0;stroke-opacity:1"
         id="rect905"
         width="95"
         height="80"
         x="321.25861"
         y="282.99033" />
      <circle
         style="fill:none;stroke:#000000;stroke-width:0.264583;stroke-linecap:round;stroke-miterlimit:4;stroke-dasharray:none"
         id="path1051"
         cx="412.25861"
         cy="286.99033"
         r="0.75" />
      <circle
         style="fill:none;stroke:#000000;stroke-width:0.264583;stroke-linecap:round;stroke-miterlimit:4;stroke-dasharray:none"
         id="circle1353"
         cx="325.25861"
         cy="286.99033"
         r="0.75" />
      <circle
         style="fill:none;stroke:#000000;stroke-width:0.264583;stroke-linecap:round;stroke-miterlimit:4;stroke-dasharray:none"
         id="circle1355"
         cx="325.25861"
         cy="358.99033"
         r="0.75" />
      <circle
         style="fill:none;stroke:#000000;stroke-width:0.264583;stroke-linecap:round;stroke-miterlimit:4;stroke-dasharray:none"
         id="circle1357"
         cx="412.25861"
         cy="358.99033"
         r="0.75" />
    </g>
    <g
       id="g3035"
       transform="translate(-8.42601,7.1079038)"
       style="stroke:#ff0000">
      <path
         id="path3023"
         style="opacity:1;vector-effect:none;fill:none;fill-opacity:1;fill-rule:evenodd;stroke:#ff0000;stroke-width:0.999999;stroke-linecap:butt;stroke-linejoin:miter;stroke-miterlimit:4;stroke-dasharray:none;stroke-dashoffset:0;stroke-opacity:1"
         d="m 1332.3449,1150.2996 8e-4,11.3391 -11.5721,10e-5 v 241.8886 l 11.5721,-10e-5 5e-4,11.3392 h 298.584 l -5e-4,-11.3392 11.3378,-5e-4 v -241.8886 l -11.3378,5e-4 -8e-4,-11.3391 z"
         transform="matrix(0.26458333,0,0,0.26458333,-23.257989,-16.359771)"
         sodipodi:nodetypes="ccccccccccccc" />
      <rect
         style="opacity:1;vector-effect:none;fill:none;fill-opacity:1;fill-rule:evenodd;stroke:#ff0000;stroke-width:0.264583;stroke-linecap:butt;stroke-linejoin:miter;stroke-miterlimit:4;stroke-dasharray:none;stroke-dashoffset:0;stroke-opacity:1"
         id="rect3025"
         width="95"
         height="80"
         x="321.25861"
         y="282.99033" />
      <circle
         style="fill:none;stroke:#ff0000;stroke-width:0.264583;stroke-linecap:round;stroke-miterlimit:4;stroke-dasharray:none"
         id="circle3027"
         cx="412.25861"
         cy="286.99033"
         r="0.75" />
      <circle
         style="fill:none;stroke:#ff0000;stroke-width:0.264583;stroke-linecap:round;stroke-miterlimit:4;stroke-dasharray:none"
         id="circle3029"
         cx="325.25861"
         cy="286.99033"
         r="0.75" />
      <circle
         style="fill:none;stroke:#ff0000;stroke-width:0.264583;stroke-linecap:round;stroke-miterlimit:4;stroke-dasharray:none"
         id="circle3031"
         cx="325.25861"
         cy="358.99033"
         r="0.75" />
      <circle
         style="fill:none;stroke:#ff0000;stroke-width:0.264583;stroke-linecap:round;stroke-miterlimit:4;stroke-dasharray:none"
         id="circle3033"
         cx="412.25861"
         cy="358.99033"
         r="0.75" />
    </g>
    <use
       x="0"
       y="0"
       xlink:href="#path1074"
       id="use3968"
       transform="translate(360)"
       width="100%"
       height="100%" />
    <use
       x="0"
       y="0"
       xlink:href="#path1074-4"
       id="use3970"
       transform="translate(360)"
       width="100%"
       height="100%" />
    <use
       x="0"
       y="0"
       xlink:href="#path1074-1"
       id="use3972"
       transform="translate(360)"
       width="100%"
       height="100%" />
    <use
       x="0"
       y="0"
       xlink:href="#path1235"
       id="use3974"
       transform="translate(360)"
       width="100%"
       height="100%" />
    <use
       x="0"
       y="0"
       xlink:href="#path1235-3"
       id="use3976"
       transform="translate(360)"
       width="100%"
       height="100%" />
    <use
       x="0"
       y="0"
       xlink:href="#path1235-6"
       id="use3978"
       transform="translate(360)"
       width="100%"
       height="100%" />
  </g>
</svg>
