<?xml version="1.0" encoding="UTF-8" standalone="no"?>
<!-- Created with Inkscape (http://www.inkscape.org/) -->

<svg
   width="614.97101mm"
   height="412.05289mm"
   viewBox="0 0 614.97101 412.05289"
   version="1.1"
   id="svg5"
   inkscape:version="1.1.2 (0a00cf5339, 2022-02-04, custom)"
   sodipodi:docname="Boitier Epaisseur6mm.svg"
   xmlns:inkscape="http://www.inkscape.org/namespaces/inkscape"
   xmlns:sodipodi="http://sodipodi.sourceforge.net/DTD/sodipodi-0.dtd"
   xmlns="http://www.w3.org/2000/svg"
   xmlns:svg="http://www.w3.org/2000/svg">
  <sodipodi:namedview
     id="namedview7"
     pagecolor="#ffffff"
     bordercolor="#666666"
     borderopacity="1.0"
     inkscape:pageshadow="2"
     inkscape:pageopacity="0.0"
     inkscape:pagecheckerboard="0"
     inkscape:document-units="mm"
     showgrid="false"
     inkscape:zoom="1.6017536"
     inkscape:cx="1064.1462"
     inkscape:cy="889.33776"
     inkscape:window-width="3840"
     inkscape:window-height="2081"
     inkscape:window-x="-9"
     inkscape:window-y="-9"
     inkscape:window-maximized="1"
     inkscape:current-layer="layer1"
     showguides="true"
     inkscape:guide-bbox="true">
    <inkscape:grid
       type="xygrid"
       id="grid2870"
       originx="-6.4714243e-07"
       originy="9.9835874e-07" />
  </sodipodi:namedview>
  <defs
     id="defs2" />
  <g
     inkscape:label="Calque 1"
     inkscape:groupmode="layer"
     id="layer1"
     transform="translate(23.257989,6.359771)">
    <rect
       style="opacity:1;vector-effect:none;fill:#00ff00;fill-opacity:1;fill-rule:evenodd;stroke:#ff0000;stroke-width:0.264585;stroke-linecap:butt;stroke-linejoin:miter;stroke-miterlimit:4;stroke-dasharray:none;stroke-dashoffset:0;stroke-opacity:1"
       id="rect868"
       width="300"
       height="140"
       x="-23.125696"
       y="-6.2274785"
       ry="23.588207" />
    <rect
       style="vector-effect:none;fill:#ffff00;fill-opacity:1;fill-rule:evenodd;stroke:#ff0000;stroke-width:0.264585;stroke-linecap:butt;stroke-linejoin:miter;stroke-miterlimit:4;stroke-dasharray:none;stroke-dashoffset:0;stroke-opacity:1"
       id="rect868-4"
       width="300"
       height="140"
       x="291.58072"
       y="-4.4921398"
       ry="23.588207" />
    <circle
       style="fill:none;stroke:#ff0000;stroke-width:0.264583"
       id="path1074"
       cx="25.840878"
       cy="37.598442"
       r="2.55" />
    <circle
       style="fill:none;stroke:#ff0000;stroke-width:0.264583"
       id="path1074-4"
       cx="123.01526"
       cy="37.598442"
       r="2.55" />
    <circle
       style="fill:none;stroke:#ff0000;stroke-width:0.264583"
       id="path1074-1"
       cx="220.18965"
       cy="37.598442"
       r="2.55" />
    <circle
       style="fill:none;stroke:#ff0000;stroke-width:0.264583"
       id="path1235"
       cx="25.840878"
       cy="83.73526"
       r="13.5" />
    <circle
       style="fill:none;stroke:#ff0000;stroke-width:0.264583"
       id="path1235-3"
       cx="123.01527"
       cy="83.73526"
       r="13.5" />
    <circle
       style="fill:none;stroke:#ff0000;stroke-width:0.264583"
       id="path1235-6"
       cx="220.18965"
       cy="83.73526"
       r="13.5" />
    <g
       id="g_tag_id_3"
       class="g_tag_piece_box"
       transform="translate(-17.215444,140.03734)"
       style="fill:none;stroke:#ff0000;stroke-width:0.264583;stroke-miterlimit:4;stroke-dasharray:none">
      <path
         d="m 5,5 v 0 h 5 v 0 h 17.857143 v -6 h 20 v 6 0 h 17.857143 v -6 h 20 v 6 0 h 17.857144 v -6 h 20 v 6 0 h 17.85714 v -6 h 20 v 6 0 h 17.85714 v -6 h 20 v 6 0 h 17.85715 v -6 h 20 V 5 5 H 255 h 5"
         fill="transparent"
         id="path8"
         style="fill:none;stroke:#ff0000;stroke-width:0.264583;stroke-miterlimit:4;stroke-dasharray:none"
         sodipodi:nodetypes="cccccccccccccccccccccccccccccccccccc" />
      <path
         d="m 260,5 v 0 5 0 7.5 h -6 v 20 h 6 v 0 7.5 15"
         fill="transparent"
         id="path10"
         style="fill:none;stroke:#ff0000;stroke-width:0.264583;stroke-miterlimit:4;stroke-dasharray:none"
         sodipodi:nodetypes="ccccccccccc" />
      <path
         d="m 260,60 h -29.99527 l -0.005,2.999983 h -20 L 210.05882,60 H 55.039769 l -0.03977,2.999998 h -20 L 35.064658,60 H 5"
         fill="transparent"
         id="path12"
         style="fill:none;stroke:#ff0000;stroke-width:0.264583;stroke-miterlimit:4;stroke-dasharray:none"
         sodipodi:nodetypes="cccccccccc" />
      <path
         d="m 5,60 v 0 -15 0 -7.5 h 6 v -20 H 5 v 0 V 10 5"
         fill="transparent"
         id="path14"
         style="fill:none;stroke:#ff0000;stroke-width:0.264583;stroke-miterlimit:4;stroke-dasharray:none"
         sodipodi:nodetypes="ccccccccccc" />
    </g>
    <g
       id="g_tag_id_5"
       class="g_tag_piece_box"
       transform="translate(-17.215444,140.03734)"
       style="fill:none;stroke:#ff0000;stroke-width:0.264583;stroke-miterlimit:4;stroke-dasharray:none">
      <path
         d="m 260,5 v 0 0 h 13.33333 v -6 h 20 v 6 0 h 13.33334 v -6 h 20 V 5 5 H 340"
         fill="transparent"
         id="path17"
         style="fill:none;stroke:#ff0000;stroke-width:0.264583;stroke-miterlimit:4;stroke-dasharray:none"
         sodipodi:nodetypes="cccccccccccccc" />
      <path
         d="m 340,5 v 0 5 0 7.5 h 6 v 20 h -6 v 0 7.5 15"
         fill="transparent"
         id="path19"
         style="fill:none;stroke:#ff0000;stroke-width:0.264583;stroke-miterlimit:4;stroke-dasharray:none"
         sodipodi:nodetypes="ccccccccccc" />
      <path
         d="M 340,60 H 260"
         fill="transparent"
         id="path21"
         style="fill:none;stroke:#ff0000;stroke-width:0.264583;stroke-miterlimit:4;stroke-dasharray:none"
         sodipodi:nodetypes="cc" />
    </g>
    <path
       id="rect8308"
       style="opacity:1;vector-effect:none;fill:none;fill-opacity:1;fill-rule:evenodd;stroke:#ff0000;stroke-width:0.264583;stroke-linecap:butt;stroke-linejoin:miter;stroke-miterlimit:4;stroke-dasharray:none;stroke-dashoffset:0;stroke-opacity:1"
       d="M 232.78465,405.56082 V 351.03753 H -12.215376 v 54.52329 z m -86.93527,-14.66886 c -16.82795,-0.0629 -33.65579,-0.11985 -50.483716,-0.19225 -6.76672,-0.0116 -13.53584,-0.088 -20.30111,-0.0594 -2.12735,0.13527 -4.37118,-2.01069 -4.71289,-4.6948 -0.13663,-6.11018 -0.0204,-12.22831 -0.0294,-18.34151 -0.1609,-1.76483 0.29921,-3.74603 1.38027,-5.04362 0.8789,-1.17978 2.19065,-1.67212 3.45406,-1.66812 18.38844,0.0828 36.777956,0.13561 55.166656,0.22479 5.05364,0.006 10.15222,0.0771 15.17787,0.0424 2.16342,-0.13811 4.35817,1.99032 4.71961,4.69892 0.13928,6.27672 0.005,12.56335 0.0202,18.84382 0.23839,3 -1.75474,5.94143 -4.17597,6.17844 -0.0666,0.004 -0.17028,0.0112 -0.2155,0.0114 z" />
    <g
       id="g_tag_id_1"
       class="g_tag_piece_box"
       transform="translate(-17.215444,166.03734)"
       style="fill:none;stroke:#ff0000;stroke-width:0.264583;stroke-miterlimit:4;stroke-dasharray:none">
      <path
         d="m 260,40 v 0 15 0 7.5 h -6 v 20 h 6 v 0 7.5 5"
         fill="transparent"
         id="path24"
         style="fill:none;stroke:#ff0000;stroke-width:0.264583;stroke-miterlimit:4;stroke-dasharray:none"
         sodipodi:nodetypes="ccccccccccc" />
      <path
         d="m 260,95 v 0 h -5 v 0 h -17.85714 v 6 h -20 v -6 0 h -17.85715 v 6 h -20 v -6 0 h -17.85714 v 6 h -20 v -6 0 h -17.85714 v 6 h -20 v -6 0 H 85.714286 v 6 h -20 v -6 0 H 47.857143 v 6 h -20 v -6 0 H 10 5"
         fill="transparent"
         id="path26"
         style="fill:none;stroke:#ff0000;stroke-width:0.264583;stroke-miterlimit:4;stroke-dasharray:none"
         sodipodi:nodetypes="cccccccccccccccccccccccccccccccccccc" />
      <path
         d="m 5,95 v 0 -5 0 -7.5 h 6 v -20 H 5 v 0 V 55 40"
         fill="transparent"
         id="path28"
         style="fill:none;stroke:#ff0000;stroke-width:0.264583;stroke-miterlimit:4;stroke-dasharray:none"
         sodipodi:nodetypes="ccccccccccc" />
    </g>
    <g
       id="g_tag_id_4"
       class="g_tag_piece_box"
       transform="translate(-17.215444,166.03734)"
       style="fill:none;stroke:#ff0000;stroke-width:0.264583;stroke-miterlimit:4;stroke-dasharray:none">
      <path
         d="m 340,40 v 0 15 0 7.5 h 6 v 20 h -6 v 0 7.5 5"
         fill="transparent"
         id="path31"
         style="fill:none;stroke:#ff0000;stroke-width:0.264583;stroke-miterlimit:4;stroke-dasharray:none"
         sodipodi:nodetypes="ccccccccccc" />
      <path
         d="m 340,95 v 0 0 h -13.33333 v 6 h -20 v -6 0 h -13.33334 v 6 h -20 v -6 0 H 260"
         fill="transparent"
         id="path33"
         style="fill:none;stroke:#ff0000;stroke-width:0.264583;stroke-miterlimit:4;stroke-dasharray:none"
         sodipodi:nodetypes="cccccccccccccc" />
    </g>
    <path
       id="path40"
       style="fill:none;stroke:#ff0000;stroke-width:0.264583;stroke-miterlimit:4;stroke-dasharray:none"
       d="m 242.78455,261.03734 v 5.00021 13.33357 h -6.0002 v 19.9998 h 6.0002 v 13.33354 h -6.0002 v 19.99983 h 6.0002 v 13.33354 4.9997 h -5.0002 -17.8568 v -5.9997 h -20.00033 v 5.64106 l -17.8573,0.35915 v -6.00021 H 162.0701 v 5.9997 h -17.85731 v -5.9997 h -19.99981 v 5.9997 h -17.85731 v -5.9997 H 86.355867 v 5.9997 H 68.498558 v -5.9997 H 48.498747 l 2.06e-4,5.7492 -17.857308,0.23614 -2.07e-4,-5.98534 H 10.641627 v 5.9997 H -7.2156817 -12.215376 v -4.9997 -13.33354 h 5.9996943 v -19.99983 h -5.9996943 v -13.33354 h 5.9996943 v -19.9998 h -5.9996943 v -13.33357 -5.00021"
       sodipodi:nodetypes="cccccccccccccccccccccccccccccccccccccccccccccccccc" />
    <path
       id="rect1955"
       style="vector-effect:none;fill:none;fill-opacity:1;fill-rule:evenodd;stroke:#ff0000;stroke-width:0.264583;stroke-linecap:butt;stroke-linejoin:miter;stroke-miterlimit:4;stroke-dasharray:none;stroke-dashoffset:0;stroke-opacity:1"
       d="m 39.471095,334.60987 c -1.555698,0 -2.808097,-1.25241 -2.808097,-2.8081 v -5.62393 a 6.9999999,6.9999999 0 0 1 -4.000273,-6.32262 6.9999999,6.9999999 0 0 1 7.00009,-7.00008 6.9999999,6.9999999 0 0 1 7.000089,7.00008 6.9999999,6.9999999 0 0 1 -3.999755,6.32415 v 5.6224 c 0,1.55569 -1.252399,2.8081 -2.808098,2.8081 z" />
    <path
       id="rect1955-0"
       style="vector-effect:none;fill:none;fill-opacity:1;fill-rule:evenodd;stroke:#ff0000;stroke-width:0.264583;stroke-linecap:butt;stroke-linejoin:miter;stroke-miterlimit:4;stroke-dasharray:none;stroke-dashoffset:0;stroke-opacity:1"
       d="m 191.03247,335.47452 c -1.5557,0 -2.8081,-1.25241 -2.8081,-2.8081 v -5.62393 a 6.9999999,6.9999999 0 0 1 -4.00027,-6.32262 6.9999999,6.9999999 0 0 1 7.00009,-7.00008 6.9999999,6.9999999 0 0 1 7.00009,7.00008 6.9999999,6.9999999 0 0 1 -3.99976,6.32415 v 5.6224 c 0,1.55569 -1.25239,2.8081 -2.80809,2.8081 z" />
    <rect
       style="opacity:1;vector-effect:none;fill:none;fill-opacity:1;fill-rule:evenodd;stroke:#ff0000;stroke-width:0.264583;stroke-linecap:butt;stroke-linejoin:miter;stroke-miterlimit:4;stroke-dasharray:none;stroke-dashoffset:0;stroke-opacity:1"
       id="rect3919"
       width="100"
       height="30"
       x="65.284554"
       y="221.03734"
       ry="5.7954721" />
    <path
       style="fill:none;stroke:#ff0000;stroke-width:0.264583px;stroke-linecap:butt;stroke-linejoin:miter;stroke-opacity:1"
       d="m -12.215444,206.03734 h 30.04686 l -0.04686,-3 h 20 l -0.0072,3 H 192.88467 l -0.10011,-3 h 20 l 0.046,3 h 109.95396"
       id="path4662"
       sodipodi:nodetypes="cccccccccc" />
    <g
       id="g7477"
       transform="translate(-110,-5.533361)"
       style="fill:none">
      <g
         id="g7221"
         transform="matrix(1,0,0,1.6666673,306.29381,-298.1878)"
         style="stroke-width:0.774597;fill:none">
        <rect
           style="vector-effect:none;fill:none;fill-opacity:1;fill-rule:evenodd;stroke:#ff0000;stroke-width:0.204945;stroke-linecap:butt;stroke-linejoin:miter;stroke-miterlimit:4;stroke-dasharray:none;stroke-dashoffset:0;stroke-opacity:1"
           id="rect4167-9"
           width="20.004725"
           height="2.9999835"
           x="322.78455"
           y="196.03734"
           ry="0" />
        <rect
           style="vector-effect:none;fill:none;fill-opacity:1;fill-rule:evenodd;stroke:#ff0000;stroke-width:0.204945;stroke-linecap:butt;stroke-linejoin:miter;stroke-miterlimit:4;stroke-dasharray:none;stroke-dashoffset:0;stroke-opacity:1"
           id="rect4167-9-5"
           width="20.004725"
           height="2.9999835"
           x="147.78455"
           y="196.03735"
           ry="0" />
      </g>
      <g
         id="g7469"
         transform="matrix(1,0,0,1.6666673,306.29381,-218.1878)"
         style="stroke-width:0.774597;fill:none">
        <rect
           style="vector-effect:none;fill:none;fill-opacity:1;fill-rule:evenodd;stroke:#ff0000;stroke-width:0.204945;stroke-linecap:butt;stroke-linejoin:miter;stroke-miterlimit:4;stroke-dasharray:none;stroke-dashoffset:0;stroke-opacity:1"
           id="rect7465"
           width="20.004725"
           height="2.9999835"
           x="322.78455"
           y="196.03734"
           ry="0" />
        <rect
           style="vector-effect:none;fill:none;fill-opacity:1;fill-rule:evenodd;stroke:#ff0000;stroke-width:0.204945;stroke-linecap:butt;stroke-linejoin:miter;stroke-miterlimit:4;stroke-dasharray:none;stroke-dashoffset:0;stroke-opacity:1"
           id="rect7467"
           width="20.004725"
           height="2.9999835"
           x="147.78455"
           y="196.03735"
           ry="0" />
      </g>
    </g>
    <circle
       style="fill:none;stroke:#ff0000;stroke-width:0.264583;stroke-miterlimit:4;stroke-dasharray:none"
       id="path7928"
       cx="-0.60810089"
       cy="263.64307"
       r="1.5" />
    <circle
       style="fill:none;stroke:#ff0000;stroke-width:0.264583;stroke-miterlimit:4;stroke-dasharray:none"
       id="circle8010"
       cx="-0.60810089"
       cy="348.64307"
       r="1.5" />
    <circle
       style="fill:none;stroke:#ff0000;stroke-width:0.264583;stroke-miterlimit:4;stroke-dasharray:none"
       id="circle8012"
       cx="231.39191"
       cy="348.64307"
       r="1.5" />
    <circle
       style="fill:none;stroke:#ff0000;stroke-width:0.264583;stroke-miterlimit:4;stroke-dasharray:none"
       id="circle8014"
       cx="231.39191"
       cy="263.64307"
       r="1.5" />
    <circle
       style="fill:none;stroke:#ff0000;stroke-width:0.264583;stroke-miterlimit:4;stroke-dasharray:none"
       id="circle8519"
       cx="70.391899"
       cy="236.03734"
       r="1.5" />
    <circle
       style="fill:none;stroke:#ff0000;stroke-width:0.264583;stroke-miterlimit:4;stroke-dasharray:none"
       id="circle8521"
       cx="160.39191"
       cy="236.03734"
       r="1.5" />
    <path
       id="rect8545"
       style="opacity:1;vector-effect:none;fill:none;fill-opacity:1;fill-rule:evenodd;stroke:#ff0000;stroke-width:0.264582;stroke-linecap:butt;stroke-linejoin:miter;stroke-miterlimit:4;stroke-dasharray:none;stroke-dashoffset:0;stroke-opacity:1"
       d="m 244.11789,268.03734 v 79.99979 h 75.71454 v -79.99979 z m 20.30471,5.00023 h 35.08859 l 14.96396,15.09416 v 39.80894 l -15.1288,15.09676 H 264.4226 l -14.94743,-14.93139 v -40.13968 z"
       sodipodi:nodetypes="cccccccccccccc" />
  </g>
</svg>
